<?xml version="1.0" encoding="UTF-8"?>
<!DOCTYPE svg PUBLIC "-//W3C//DTD SVG 1.1//EN" "http://www.w3.org/Graphics/SVG/1.1/DTD/svg11.dtd">
<!-- Creator: CorelDRAW 2019 (64-Bit) -->
<svg xmlns="http://www.w3.org/2000/svg" xml:space="preserve" width="0.375843in" height="0.563764in" version="1.1" style="shape-rendering:geometricPrecision; text-rendering:geometricPrecision; image-rendering:optimizeQuality; fill-rule:evenodd; clip-rule:evenodd"
viewBox="0 0 375.84 563.76"
 xmlns:xlink="http://www.w3.org/1999/xlink">
 <defs>
  <style type="text/css">
   <![CDATA[
    .str0 {stroke:white;stroke-width:7.87;stroke-miterlimit:22.9256}
    .fil0 {fill:white}
    .fil5 {fill:#EF453F;fill-rule:nonzero}
    .fil3 {fill:#B30006;fill-rule:nonzero}
    .fil4 {fill:#C72E33;fill-rule:nonzero}
    .fil2 {fill:#ED0008;fill-rule:nonzero}
    .fil1 {fill:white;fill-rule:nonzero}
   ]]>
  </style>
 </defs>
 <g id="Layer_x0020_1">
  <metadata id="CorelCorpID_0Corel-Layer"/>
  <g id="_2472952905120">
   <g>
    <rect class="fil0 str0" x="93.52" y="83.47" width="188.8" height="197.39"/>
    <g>
     <path class="fil1" d="M187.92 0c-103.78,0 -187.92,84.14 -187.92,187.92 0,33.38 8.96,64.59 24.22,91.76 2.53,4.51 5.2,8.95 8.08,13.23l155.63 270.86 155.62 -270.86c2.4,-3.56 4.46,-7.31 6.6,-11.02l1.48 -2.21c15.24,-27.16 24.22,-58.37 24.22,-91.76 0,-103.78 -84.14,-187.92 -187.92,-187.92zm0 93.96c51.89,0 93.96,42.06 93.96,93.96 0,51.89 -42.07,93.96 -93.96,93.96 -51.89,0 -93.96,-42.07 -93.96,-93.96 0,-51.89 42.06,-93.96 93.96,-93.96z"/>
     <path class="fil1" d="M187.92 70.46c-64.86,0 -117.45,52.58 -117.45,117.45 0,64.85 52.59,117.44 117.45,117.44 64.85,0 117.44,-52.59 117.44,-117.44 0,-64.87 -52.59,-117.45 -117.44,-117.45zm0 46.98c38.92,0 70.47,31.56 70.47,70.48 0,38.92 -31.54,70.47 -70.47,70.47 -38.93,0 -70.48,-31.55 -70.48,-70.47 0,-38.92 31.54,-70.48 70.48,-70.48z"/>
    </g>
    <path class="fil2" d="M187.92 11.46c-97.04,0 -175.7,78.67 -175.7,175.7 0,31.21 8.39,60.4 22.65,85.79 2.37,4.22 4.85,8.37 7.56,12.37l145.5 253.25 145.51 -253.25c2.24,-3.32 4.17,-6.83 6.17,-10.3l1.39 -2.07c14.25,-25.39 22.64,-54.58 22.64,-85.79 0,-97.04 -78.67,-175.7 -175.7,-175.7zm0 87.85c48.52,0 87.85,39.33 87.85,87.85 0,48.52 -39.34,87.85 -87.85,87.85 -48.52,0 -87.85,-39.34 -87.85,-87.85 0,-48.52 39.33,-87.85 87.85,-87.85z"/>
    <path class="fil3" d="M187.92 77.34c-60.65,0 -109.81,49.17 -109.81,109.81 0,60.64 49.17,109.81 109.81,109.81 60.64,0 109.81,-49.17 109.81,-109.81 0,-60.65 -49.18,-109.81 -109.81,-109.81zm0 43.93c36.39,0 65.89,29.5 65.89,65.89 0,36.39 -29.49,65.89 -65.89,65.89 -36.4,0 -65.89,-29.5 -65.89,-65.89 0,-36.39 29.49,-65.89 65.89,-65.89z"/>
   </g>
   <rect class="fil0 str0" x="93.52" y="83.47" width="188.8" height="197.39"/>
   <g>
    <path class="fil1" d="M187.92 0c-103.78,0 -187.92,84.14 -187.92,187.92 0,33.38 8.96,64.59 24.22,91.76 2.53,4.51 5.2,8.95 8.08,13.23l155.63 270.86 155.62 -270.86c2.4,-3.56 4.46,-7.31 6.6,-11.02l1.48 -2.21c15.24,-27.16 24.22,-58.37 24.22,-91.76 0,-103.78 -84.14,-187.92 -187.92,-187.92zm0 93.96c51.89,0 93.96,42.06 93.96,93.96 0,51.89 -42.07,93.96 -93.96,93.96 -51.89,0 -93.96,-42.07 -93.96,-93.96 0,-51.89 42.06,-93.96 93.96,-93.96z"/>
    <path class="fil1" d="M187.92 70.46c-64.86,0 -117.45,52.58 -117.45,117.45 0,64.85 52.59,117.44 117.45,117.44 64.85,0 117.44,-52.59 117.44,-117.44 0,-64.87 -52.59,-117.45 -117.44,-117.45zm0 46.98c38.92,0 70.47,31.56 70.47,70.48 0,38.92 -31.54,70.47 -70.47,70.47 -38.93,0 -70.48,-31.55 -70.48,-70.47 0,-38.92 31.54,-70.48 70.48,-70.48z"/>
   </g>
   <path class="fil4" d="M187.92 11.46c-97.04,0 -175.7,78.67 -175.7,175.7 0,31.21 8.39,60.4 22.65,85.79 2.37,4.22 4.85,8.37 7.56,12.37l145.5 253.25 145.51 -253.25c2.24,-3.32 4.17,-6.83 6.17,-10.3l1.39 -2.07c14.25,-25.39 22.64,-54.58 22.64,-85.79 0,-97.04 -78.67,-175.7 -175.7,-175.7zm0 87.85c48.52,0 87.85,39.33 87.85,87.85 0,48.52 -39.34,87.85 -87.85,87.85 -48.52,0 -87.85,-39.34 -87.85,-87.85 0,-48.52 39.33,-87.85 87.85,-87.85z"/>
   <path class="fil3" d="M187.92 77.34c-60.65,0 -109.81,49.17 -109.81,109.81 0,60.64 49.17,109.81 109.81,109.81 60.64,0 109.81,-49.17 109.81,-109.81 0,-60.65 -49.18,-109.81 -109.81,-109.81zm0 43.93c36.39,0 65.89,29.5 65.89,65.89 0,36.39 -29.49,65.89 -65.89,65.89 -36.4,0 -65.89,-29.5 -65.89,-65.89 0,-36.39 29.49,-65.89 65.89,-65.89z"/>
   <g>
    <rect class="fil0 str0" x="93.52" y="83.47" width="188.8" height="197.39"/>
    <g>
     <path class="fil1" d="M187.92 0c-103.78,0 -187.92,84.14 -187.92,187.92 0,33.38 8.96,64.59 24.22,91.76 2.53,4.51 5.2,8.95 8.08,13.23l155.63 270.86 155.62 -270.86c2.4,-3.56 4.46,-7.31 6.6,-11.02l1.48 -2.21c15.24,-27.16 24.22,-58.37 24.22,-91.76 0,-103.78 -84.14,-187.92 -187.92,-187.92zm0 93.96c51.89,0 93.96,42.06 93.96,93.96 0,51.89 -42.07,93.96 -93.96,93.96 -51.89,0 -93.96,-42.07 -93.96,-93.96 0,-51.89 42.06,-93.96 93.96,-93.96z"/>
     <path class="fil1" d="M187.92 70.46c-64.86,0 -117.45,52.58 -117.45,117.45 0,64.85 52.59,117.44 117.45,117.44 64.85,0 117.44,-52.59 117.44,-117.44 0,-64.87 -52.59,-117.45 -117.44,-117.45zm0 46.98c38.92,0 70.47,31.56 70.47,70.48 0,38.92 -31.54,70.47 -70.47,70.47 -38.93,0 -70.48,-31.55 -70.48,-70.47 0,-38.92 31.54,-70.48 70.48,-70.48z"/>
    </g>
    <path class="fil2" d="M187.92 11.46c-97.04,0 -175.7,78.67 -175.7,175.7 0,31.21 8.39,60.4 22.65,85.79 2.37,4.22 4.85,8.37 7.56,12.37l145.5 253.25 145.51 -253.25c2.24,-3.32 4.17,-6.83 6.17,-10.3l1.39 -2.07c14.25,-25.39 22.64,-54.58 22.64,-85.79 0,-97.04 -78.67,-175.7 -175.7,-175.7zm0 87.85c48.52,0 87.85,39.33 87.85,87.85 0,48.52 -39.34,87.85 -87.85,87.85 -48.52,0 -87.85,-39.34 -87.85,-87.85 0,-48.52 39.33,-87.85 87.85,-87.85z"/>
    <path class="fil3" d="M187.92 77.34c-60.65,0 -109.81,49.17 -109.81,109.81 0,60.64 49.17,109.81 109.81,109.81 60.64,0 109.81,-49.17 109.81,-109.81 0,-60.65 -49.18,-109.81 -109.81,-109.81zm0 43.93c36.39,0 65.89,29.5 65.89,65.89 0,36.39 -29.49,65.89 -65.89,65.89 -36.4,0 -65.89,-29.5 -65.89,-65.89 0,-36.39 29.49,-65.89 65.89,-65.89z"/>
   </g>
   <rect class="fil0 str0" x="93.52" y="83.47" width="188.8" height="197.39"/>
   <g>
    <path class="fil1" d="M187.92 0c-103.78,0 -187.92,84.14 -187.92,187.92 0,33.38 8.96,64.59 24.22,91.76 2.53,4.51 5.2,8.95 8.08,13.23l155.63 270.86 155.62 -270.86c2.4,-3.56 4.46,-7.31 6.6,-11.02l1.48 -2.21c15.24,-27.16 24.22,-58.37 24.22,-91.76 0,-103.78 -84.14,-187.92 -187.92,-187.92zm0 93.96c51.89,0 93.96,42.06 93.96,93.96 0,51.89 -42.07,93.96 -93.96,93.96 -51.89,0 -93.96,-42.07 -93.96,-93.96 0,-51.89 42.06,-93.96 93.96,-93.96z"/>
    <path class="fil1" d="M187.92 70.46c-64.86,0 -117.45,52.58 -117.45,117.45 0,64.85 52.59,117.44 117.45,117.44 64.85,0 117.44,-52.59 117.44,-117.44 0,-64.87 -52.59,-117.45 -117.44,-117.45zm0 46.98c38.92,0 70.47,31.56 70.47,70.48 0,38.92 -31.54,70.47 -70.47,70.47 -38.93,0 -70.48,-31.55 -70.48,-70.47 0,-38.92 31.54,-70.48 70.48,-70.48z"/>
   </g>
   <path class="fil5" d="M187.92 11.46c-97.04,0 -175.7,78.67 -175.7,175.7 0,31.21 8.39,60.4 22.65,85.79 2.37,4.22 4.85,8.37 7.56,12.37l145.5 253.25 145.51 -253.25c2.24,-3.32 4.17,-6.83 6.17,-10.3l1.39 -2.07c14.25,-25.39 22.64,-54.58 22.64,-85.79 0,-97.04 -78.67,-175.7 -175.7,-175.7zm0 87.85c48.52,0 87.85,39.33 87.85,87.85 0,48.52 -39.34,87.85 -87.85,87.85 -48.52,0 -87.85,-39.34 -87.85,-87.85 0,-48.52 39.33,-87.85 87.85,-87.85z"/>
   <path class="fil3" d="M187.92 77.34c-60.65,0 -109.81,49.17 -109.81,109.81 0,60.64 49.17,109.81 109.81,109.81 60.64,0 109.81,-49.17 109.81,-109.81 0,-60.65 -49.18,-109.81 -109.81,-109.81zm0 43.93c36.39,0 65.89,29.5 65.89,65.89 0,36.39 -29.49,65.89 -65.89,65.89 -36.4,0 -65.89,-29.5 -65.89,-65.89 0,-36.39 29.49,-65.89 65.89,-65.89z"/>
  </g>
 </g>
</svg>
